HIERARCHY
ROOT root
{
  OFFSET 0 98.6856 0
  CHANNELS 6 Xposition Yposition Zposition Zrotation Xrotation Yrotation
  JOINT torso_1
  {
    OFFSET 0 5.37224 -1.21793
    CHANNELS 6 Xposition Yposition Zposition Zrotation Xrotation Yrotation
    JOINT torso_2
    {
      OFFSET 0 5.94127 1.13336
      CHANNELS 6 Xposition Yposition Zposition Zrotation Xrotation Yrotation
      JOINT torso_3
      {
        OFFSET -1.08535e-17 6.33601 0.121658
        CHANNELS 6 Xposition Yposition Zposition Zrotation Xrotation Yrotation
        JOINT torso_4
        {
          OFFSET -1.16841e-17 6.88189 -0.46916
          CHANNELS 6 Xposition Yposition Zposition Zrotation Xrotation Yrotation
          JOINT torso_5
          {
            OFFSET -2.08699e-17 8.0451 -1.59297
            CHANNELS 6 Xposition Yposition Zposition Zrotation Xrotation Yrotation
            JOINT torso_6
            {
              OFFSET -2.67949e-17 10.0463 -0.967353
              CHANNELS 6 Xposition Yposition Zposition Zrotation Xrotation Yrotation
              JOINT torso_7
              {
                OFFSET -3.07187e-17 11.1612 1.66806
                CHANNELS 6 Xposition Yposition Zposition Zrotation Xrotation Yrotation
                JOINT neck_1
                {
                  OFFSET -1.36661e-17 5.06312 0.756688
                  CHANNELS 6 Xposition Yposition Zposition Zrotation Xrotation Yrotation
                  JOINT neck_2
                  {
                    OFFSET -1.91632e-17 5.09976 0.446172
                    CHANNELS 6 Xposition Yposition Zposition Zrotation Xrotation Yrotation
                    JOINT head
                    {
                      OFFSET -2.12574e-17 5.10962 0.809285
                      CHANNELS 6 Xposition Yposition Zposition Zrotation Xrotation Yrotation
                      End Site
                      {
                        OFFSET 0 0.1 0
                      }
                    }
                  }
                }
                JOINT l_shoulder
                {
                  OFFSET 1.30426 -8.04703 7.96922
                  CHANNELS 6 Xposition Yposition Zposition Zrotation Xrotation Yrotation
                  JOINT l_up_arm
                  {
                    OFFSET 13.7035 3.43734 -3.45766
                    CHANNELS 6 Xposition Yposition Zposition Zrotation Xrotation Yrotation
                    JOINT l_low_arm
                    {
                      OFFSET 30.8964 0.0632652 0.14496
                      CHANNELS 6 Xposition Yposition Zposition Zrotation Xrotation Yrotation
                      JOINT l_hand
                      {
                        OFFSET 25.6348 0.0524902 0.120274
                        CHANNELS 6 Xposition Yposition Zposition Zrotation Xrotation Yrotation
                        End Site
                        {
                          OFFSET 0.1 0 0
                        }
                      }
                    }
                  }
                }
                JOINT r_shoulder
                {
                  OFFSET -1.30426 -8.04702 7.96912
                  CHANNELS 6 Xposition Yposition Zposition Zrotation Xrotation Yrotation
                  JOINT r_up_arm
                  {
                    OFFSET -13.7035 3.43734 -3.45766
                    CHANNELS 6 Xposition Yposition Zposition Zrotation Xrotation Yrotation
                    JOINT r_low_arm
                    {
                      OFFSET -30.8964 0.0632652 0.14496
                      CHANNELS 6 Xposition Yposition Zposition Zrotation Xrotation Yrotation
                      JOINT r_hand
                      {
                        OFFSET -25.6348 0.0524901 0.120274
                        CHANNELS 6 Xposition Yposition Zposition Zrotation Xrotation Yrotation
                        End Site
                        {
                          OFFSET -0.1 0 0
                        }
                      }
                    }
                  }
                }
              }
            }
          }
        }
      }
    }
  }
  JOINT l_up_leg
  {
    OFFSET 9.77065 -4.44866 2.1502
    CHANNELS 6 Xposition Yposition Zposition Zrotation Xrotation Yrotation
    JOINT l_low_leg
    {
      OFFSET -0.901622 -41.0132 -0.693059
      CHANNELS 6 Xposition Yposition Zposition Zrotation Xrotation Yrotation
      JOINT l_foot
      {
        OFFSET -2.46068 -42.7371 -6.39839
        CHANNELS 6 Xposition Yposition Zposition Zrotation Xrotation Yrotation
        JOINT l_toes
        {
          OFFSET 0.82413 -10.4558 13.2182
          CHANNELS 6 Xposition Yposition Zposition Zrotation Xrotation Yrotation
          End Site
          {
            OFFSET 0 0 0.1
          }
        }
      }
    }
  }
  JOINT r_up_leg
  {
    OFFSET -9.77065 -4.44866 2.1502
    CHANNELS 6 Xposition Yposition Zposition Zrotation Xrotation Yrotation
    JOINT r_low_leg
    {
      OFFSET 0.901622 -41.0132 -0.693059
      CHANNELS 6 Xposition Yposition Zposition Zrotation Xrotation Yrotation
      JOINT r_foot
      {
        OFFSET 2.46068 -42.7371 -6.39839
        CHANNELS 6 Xposition Yposition Zposition Zrotation Xrotation Yrotation
        JOINT r_toes
        {
          OFFSET -0.82413 -10.4558 13.2182
          CHANNELS 6 Xposition Yposition Zposition Zrotation Xrotation Yrotation
          End Site
          {
            OFFSET 0 0 0.1
          }
        }
      }
    }
  }
}
MOTION
Frames:4
Frame Time:0.020000
-18.5462 88.9387 -68.3934 -10.3404 -5.80552 67.1522 0 5.37224 -1.21793 -0.159938 12.2773 1.768 0 5.94127 1.13336 -0.487876 9.10761 2.19127 -1.08535e-17 6.33601 0.121658 -0.629739 6.83066 2.14042 -1.16841e-17 6.88189 -0.46916 -0.784273 2.92473 2.21396 -2.08699e-17 8.0451 -1.59297 -0.448473 -0.325693 2.27643 -2.67949e-17 10.0463 -0.967353 0.253718 -1.93496 2.11562 -3.07187e-17 11.1612 1.66806 0.0388914 0.128718 0.0221936 -1.36661e-17 5.06312 0.756688 -0.684593 3.58703 3.17159 -1.91632e-17 5.09976 0.446172 -2.03327 -11.178 1.51287 -2.12574e-17 5.10962 0.809285 -3.45725 -14.957 4.12564 1.30426 -8.04703 7.96922 11.5336 -2.33169 -5.22415 13.7035 3.43734 -3.45766 -75.6331 5.12417 -50.2238 30.8964 0.0632652 0.14496 8.26211 -3.27143 -43.7389 25.6348 0.0524902 0.120274 0.894838 -25.4132 -1.74032 -1.30426 -8.04702 7.96912 -9.24858 -2.25515 6.53456 -13.7035 3.43734 -3.45766 82.006 -10.3381 43.93 -30.8964 0.0632652 0.14496 -9.03122 -4.06869 49.026 -25.6348 0.0524901 0.120274 4.79246 -51.5365 4.12292 9.77065 -4.44866 2.1502 13.7254 -49.7487 -9.54837 -0.901622 -41.0132 -0.693059 -15.4946 45.7765 5.71881 -2.46068 -42.7371 -6.39839 1.25223 -7.0942 15.5812 0.82413 -10.4558 13.2182 -7.43338e-16 -8.32279e-16 4.95646e-17 -9.77065 -4.44866 2.1502 -17.2259 -1.51048 -28.8104 0.901622 -41.0132 -0.693059 8.52571 29.4037 -1.71394 2.46068 -42.7371 -6.39839 9.36781 -5.59814 -16.0964 -0.82413 -10.4558 13.2182 -9.96028e-16 -5.46592e-16 -1.27222e-14 
-18.3768 88.7348 -68.6588 -10.8312 -5.79038 67.671 0 5.37224 -1.21793 -0.311427 12.2587 1.88754 0 5.94127 1.13336 -0.635091 9.09547 2.30073 -1.08535e-17 6.33601 0.121658 -0.755666 6.82617 2.24768 -1.16841e-17 6.88189 -0.46916 -0.890233 2.93795 2.32139 -2.08699e-17 8.0451 -1.59297 -0.502929 -0.304419 2.39278 -2.67949e-17 10.0463 -0.967353 0.261099 -1.91896 2.22657 -3.07187e-17 11.1612 1.66806 0.0394924 0.128477 0.0219805 -1.36661e-17 5.06312 0.756688 -0.736064 3.63307 2.921 -1.91632e-17 5.09976 0.446172 -2.00621 -11.2764 1.39507 -2.12574e-17 5.10962 0.809285 -3.45213 -15.0124 4.00814 1.30426 -8.04703 7.96922 11.6477 -2.4086 -5.30882 13.7035 3.43734 -3.45766 -75.6763 4.80972 -50.8335 30.8964 0.0632652 0.14496 8.29002 -3.2979 -43.9226 25.6348 0.0524902 0.120274 0.911082 -25.114 -1.68887 -1.30426 -8.04702 7.96912 -9.47938 -2.33121 6.44446 -13.7035 3.43734 -3.45766 82.3216 -10.2886 45.1222 -30.8964 0.0632652 0.14496 -8.93569 -3.96141 48.341 -25.6348 0.0524901 0.120274 4.51072 -50.6523 3.94408 9.77065 -4.44866 2.1502 13.2856 -50.6533 -10.099 -0.901622 -41.0132 -0.693059 -15.7264 46.2004 5.87786 -2.46068 -42.7371 -6.39839 1.36539 -7.39794 15.5969 0.82413 -10.4558 13.2182 4.40953e-16 -7.82978e-16 2.63037e-19 -9.77065 -4.44866 2.1502 -17.1032 -1.84913 -28.4059 0.901622 -41.0132 -0.693059 8.53216 29.4224 -1.71677 2.46068 -42.7371 -6.39839 9.26232 -5.80341 -16.0402 -0.82413 -10.4558 13.2182 -2.02993e-16 -5.83733e-16 -1.27593e-14 
-18.2242 88.5153 -68.9399 -11.4866 -5.73379 68.1546 0 5.37224 -1.21793 -0.441872 12.0963 2.0011 0 5.94127 1.13336 -0.761589 8.99485 2.40584 -1.08535e-17 6.33601 0.121658 -0.864714 6.77447 2.35137 -1.16841e-17 6.88189 -0.46916 -0.984792 2.97366 2.42437 -2.08699e-17 8.0451 -1.59297 -0.552996 -0.21246 2.50314 -2.67949e-17 10.0463 -0.967353 0.267234 -1.80709 2.33334 -3.07187e-17 11.1612 1.66806 0.0405109 0.126848 0.0219214 -1.36661e-17 5.06312 0.756688 -0.787257 3.71605 2.63196 -1.91632e-17 5.09976 0.446172 -1.98035 -11.346 1.26226 -2.12574e-17 5.10962 0.809285 -3.43698 -15.1559 3.93395 1.30426 -8.04703 7.96922 11.7791 -2.57115 -5.30508 13.7035 3.43734 -3.45766 -75.9191 4.61837 -51.4161 30.8964 0.0632652 0.14496 8.31259 -3.31944 -44.0715 25.6348 0.0524902 0.120274 0.964225 -24.6243 -1.69064 -1.30426 -8.04702 7.96912 -9.68432 -2.47758 6.2861 -13.7035 3.43734 -3.45766 82.7239 -10.2611 46.2868 -30.8964 0.0632652 0.14496 -8.82995 -3.84558 47.5929 -25.6348 0.0524901 0.120274 4.38583 -49.648 3.8632 9.77065 -4.44866 2.1502 12.8788 -51.7409 -10.623 -0.901622 -41.0132 -0.693059 -15.9722 46.6426 6.04796 -2.46068 -42.7371 -6.39839 1.47736 -7.70212 15.6121 0.82413 -10.4558 13.2182 -7.3913e-16 -8.32148e-16 4.94331e-17 -9.77065 -4.44866 2.1502 -17.0486 -2.37044 -28.2242 0.901622 -41.0132 -0.693059 8.57303 29.5407 -1.7348 2.46068 -42.7371 -6.39839 9.13716 -6.01158 -15.9616 -0.82413 -10.4558 13.2182 -5.9425e-16 -5.59213e-16 -1.27471e-14 
-18.068 88.3058 -69.2549 -12.0717 -5.69575 68.6837 0 5.37224 -1.21793 -0.538093 11.817 2.09188 0 5.94127 1.13336 -0.855159 8.83591 2.48749 -1.08535e-17 6.33601 0.121658 -0.947915 6.71357 2.43018 -1.16841e-17 6.88189 -0.46916 -1.06189 3.08502 2.49976 -2.08699e-17 8.0451 -1.59297 -0.60171 0.00694837 2.58624 -2.67949e-17 10.0463 -0.967353 0.259266 -1.53718 2.41807 -3.07187e-17 11.1612 1.66806 0.0413507 0.122382 0.0213318 -1.36661e-17 5.06312 0.756688 -0.824327 3.74064 2.44172 -1.91632e-17 5.09976 0.446172 -1.98391 -11.5292 1.1777 -2.12574e-17 5.10962 0.809285 -3.37905 -15.3577 3.78998 1.30426 -8.04703 7.96922 11.8347 -2.86435 -5.27751 13.7035 3.43734 -3.45766 -76.2673 4.27246 -52.1961 30.8964 0.0632652 0.14496 8.29255 -3.30031 -43.9392 25.6348 0.0524902 0.120274 0.921084 -24.0576 -1.70043 -1.30426 -8.04702 7.96912 -9.81727 -2.73721 6.10133 -13.7035 3.43734 -3.45766 83.1669 -10.229 47.5453 -30.8964 0.0632652 0.14496 -8.716 -3.72408 46.7982 -25.6348 0.0524901 0.120274 4.15664 -48.4615 3.63788 9.77065 -4.44866 2.1502 12.3475 -52.7558 -11.209 -0.901622 -41.0132 -0.693059 -16.2012 47.0478 6.20765 -2.46068 -42.7371 -6.39839 1.61003 -7.94915 15.6185 0.82413 -10.4558 13.2182 -3.49977e-16 -8.07694e-16 2.49796e-17 -9.77065 -4.44866 2.1502 -17.0622 -2.8607 -28.0489 0.901622 -41.0132 -0.693059 8.63151 29.7096 -1.76074 2.46068 -42.7371 -6.39839 9.03174 -6.09317 -15.8986 -0.82413 -10.4558 13.2182 -5.96354e-16 -5.59082e-16 -1.27471e-14 
